<svg data-v-fde0c5aa="" xmlns="http://www.w3.org/2000/svg" viewBox="0 0 300 300" class="iconLeft"><!----><defs data-v-fde0c5aa=""><!----></defs><rect data-v-fde0c5aa="" fill="#00242B" x="0" y="0" width="300px" height="300px" class="logo-background-square"></rect><defs data-v-fde0c5aa=""><!----></defs><g data-v-fde0c5aa="" id="dca60bbe-7575-47ff-9843-41e7b342132a" fill="#7DE38D" transform="matrix(4.270616316416652,0,0,4.270616316416652,131.5825707050285,116.0272475287277)"><path d="M1.93 5.88L1.93 5.88Q1.93 6.44 2.20 6.85L2.20 6.85L2.20 6.85Q2.46 7.25 2.85 7.52L2.85 7.52L2.85 7.52Q3.23 7.80 3.92 8.20L3.92 8.20L3.92 8.20Q4.65 8.64 5.05 8.93L5.05 8.93L5.05 8.93Q5.45 9.21 5.73 9.66L5.73 9.66L5.73 9.66Q6.02 10.11 6.02 10.74L6.02 10.74L6.02 10.74Q6.02 11.40 5.70 11.94L5.70 11.94L5.70 11.94Q5.38 12.47 4.74 12.79L4.74 12.79L4.74 12.79Q4.10 13.10 3.18 13.10L3.18 13.10L3.18 13.10Q2.69 13.10 2.25 13.00L2.25 13.00L2.25 13.00Q1.81 12.89 1.27 12.63L1.27 12.63L1.27 12.63Q1.20 12.59 1.18 12.53L1.18 12.53L1.18 12.53Q1.16 12.47 1.15 12.36L1.15 12.36L0.94 10.54L0.94 10.53L0.94 10.53Q0.94 10.47 1.01 10.46L1.01 10.46L1.01 10.46Q1.08 10.46 1.09 10.51L1.09 10.51L1.09 10.51Q1.23 11.48 1.83 12.19L1.83 12.19L1.83 12.19Q2.44 12.91 3.49 12.91L3.49 12.91L3.49 12.91Q4.23 12.91 4.74 12.50L4.74 12.50L4.74 12.50Q5.25 12.10 5.25 11.23L5.25 11.23L5.25 11.23Q5.25 10.60 4.97 10.14L4.97 10.14L4.97 10.14Q4.69 9.69 4.29 9.39L4.29 9.39L4.29 9.39Q3.89 9.09 3.21 8.68L3.21 8.68L3.21 8.68Q2.53 8.29 2.15 7.99L2.15 7.99L2.15 7.99Q1.76 7.70 1.49 7.26L1.49 7.26L1.49 7.26Q1.22 6.82 1.22 6.20L1.22 6.20L1.22 6.20Q1.22 5.50 1.57 5.01L1.57 5.01L1.57 5.01Q1.93 4.52 2.51 4.28L2.51 4.28L2.51 4.28Q3.08 4.03 3.74 4.03L3.74 4.03L3.74 4.03Q4.51 4.03 5.33 4.37L5.33 4.37L5.33 4.37Q5.54 4.45 5.54 4.61L5.54 4.61L5.67 6.09L5.67 6.09Q5.67 6.15 5.59 6.15L5.59 6.15L5.59 6.15Q5.52 6.15 5.50 6.09L5.50 6.09L5.50 6.09Q5.45 5.36 4.96 4.79L4.96 4.79L4.96 4.79Q4.47 4.21 3.56 4.21L3.56 4.21L3.56 4.21Q2.72 4.21 2.32 4.70L2.32 4.70L2.32 4.70Q1.93 5.19 1.93 5.88L1.93 5.88ZM10.01 13.12L10.01 13.12Q9.21 13.12 8.60 12.72L8.60 12.72L8.60 12.72Q7.98 12.32 7.64 11.64L7.64 11.64L7.64 11.64Q7.31 10.96 7.31 10.16L7.31 10.16L7.31 10.16Q7.31 9.25 7.75 8.62L7.75 8.62L7.75 8.62Q8.19 7.98 8.87 7.67L8.87 7.67L8.87 7.67Q9.55 7.35 10.26 7.35L10.26 7.35L10.26 7.35Q11.07 7.35 11.68 7.76L11.68 7.76L11.68 7.76Q12.29 8.16 12.62 8.83L12.62 8.83L12.62 8.83Q12.95 9.49 12.95 10.23L12.95 10.23L12.95 10.23Q12.95 11.10 12.55 11.76L12.55 11.76L12.55 11.76Q12.15 12.42 11.48 12.77L11.48 12.77L11.48 12.77Q10.81 13.12 10.01 13.12L10.01 13.12ZM10.40 12.87L10.40 12.87Q11.21 12.87 11.68 12.32L11.68 12.32L11.68 12.32Q12.14 11.77 12.14 10.60L12.14 10.60L12.14 10.60Q12.14 9.76 11.84 9.08L11.84 9.08L11.84 9.08Q11.55 8.40 11.02 8.01L11.02 8.01L11.02 8.01Q10.49 7.62 9.80 7.62L9.80 7.62L9.80 7.62Q9.00 7.62 8.55 8.17L8.55 8.17L8.55 8.17Q8.11 8.72 8.11 9.76L8.11 9.76L8.11 9.76Q8.11 10.60 8.40 11.30L8.40 11.30L8.40 11.30Q8.69 12.01 9.21 12.44L9.21 12.44L9.21 12.44Q9.73 12.87 10.40 12.87L10.40 12.87ZM20.22 12.17L20.24 12.17L20.24 12.17Q20.30 12.17 20.32 12.23L20.32 12.23L20.32 12.23Q20.34 12.29 20.29 12.32L20.29 12.32L18.72 13.05L18.66 13.06L18.66 13.06Q18.54 13.06 18.40 12.75L18.40 12.75L18.40 12.75Q18.27 12.43 18.27 11.94L18.27 11.94L18.27 11.82L18.27 11.82Q17.70 12.46 17.14 12.75L17.14 12.75L17.14 12.75Q16.58 13.03 15.99 13.03L15.99 13.03L15.99 13.03Q15.30 13.03 14.92 12.60L14.92 12.60L14.92 12.60Q14.53 12.17 14.53 11.33L14.53 11.33L14.53 9.16L14.53 9.16Q14.53 8.58 14.44 8.34L14.44 8.34L14.44 8.34Q14.35 8.09 14.13 8.09L14.13 8.09L14.13 8.09Q13.92 8.09 13.62 8.23L13.62 8.23L13.59 8.23L13.59 8.23Q13.54 8.23 13.52 8.16L13.52 8.16L13.52 8.16Q13.50 8.09 13.55 8.08L13.55 8.08L15.02 7.42L15.08 7.41L15.08 7.41Q15.11 7.41 15.15 7.43L15.15 7.43L15.15 7.43Q15.19 7.46 15.19 7.50L15.19 7.50L15.19 10.91L15.19 10.91Q15.19 11.75 15.48 12.15L15.48 12.15L15.48 12.15Q15.78 12.56 16.37 12.56L16.37 12.56L16.37 12.56Q16.86 12.56 17.36 12.30L17.36 12.30L17.36 12.30Q17.86 12.04 18.27 11.58L18.27 11.58L18.27 9.16L18.27 9.16Q18.27 8.58 18.18 8.34L18.18 8.34L18.18 8.34Q18.09 8.09 17.85 8.09L17.85 8.09L17.85 8.09Q17.64 8.09 17.35 8.23L17.35 8.23L17.32 8.23L17.32 8.23Q17.26 8.23 17.25 8.16L17.25 8.16L17.25 8.16Q17.23 8.09 17.29 8.08L17.29 8.08L18.76 7.42L18.80 7.41L18.80 7.41Q18.84 7.41 18.88 7.43L18.88 7.43L18.88 7.43Q18.91 7.46 18.91 7.50L18.91 7.50L18.91 11.47L18.91 11.47Q18.91 11.94 19.03 12.16L19.03 12.16L19.03 12.16Q19.15 12.38 19.43 12.38L19.43 12.38L19.43 12.38Q19.57 12.38 19.77 12.31L19.77 12.31L19.77 12.31Q19.98 12.25 20.22 12.17L20.22 12.17ZM20.90 12.94L20.90 12.94Q20.86 12.94 20.86 12.85L20.86 12.85L20.86 12.85Q20.86 12.77 20.90 12.77L20.90 12.77L20.90 12.77Q21.31 12.77 21.49 12.70L21.49 12.70L21.49 12.70Q21.67 12.63 21.74 12.43L21.74 12.43L21.74 12.43Q21.81 12.22 21.81 11.80L21.81 11.80L21.81 4.54L21.81 4.54Q21.81 4.02 21.71 3.79L21.71 3.79L21.71 3.79Q21.62 3.57 21.36 3.57L21.36 3.57L21.36 3.57Q21.14 3.57 20.69 3.78L20.69 3.78L20.66 3.78L20.66 3.78Q20.61 3.78 20.59 3.71L20.59 3.71L20.59 3.71Q20.57 3.64 20.62 3.63L20.62 3.63L22.34 2.80L22.34 2.80Q22.37 2.79 22.41 2.79L22.41 2.79L22.41 2.79Q22.44 2.79 22.48 2.81L22.48 2.81L22.48 2.81Q22.51 2.84 22.51 2.88L22.51 2.88L22.51 11.80L22.51 11.80Q22.51 12.22 22.57 12.42L22.57 12.42L22.57 12.42Q22.64 12.61 22.83 12.69L22.83 12.69L22.83 12.69Q23.02 12.77 23.42 12.77L23.42 12.77L23.42 12.77Q23.46 12.77 23.46 12.85L23.46 12.85L23.46 12.85Q23.46 12.94 23.42 12.94L23.42 12.94L23.42 12.94Q23.11 12.94 22.92 12.92L22.92 12.92L22.16 12.91L21.41 12.92L21.41 12.92Q21.22 12.94 20.90 12.94L20.90 12.94ZM27.13 13.12L27.13 13.12Q26.33 13.12 25.72 12.72L25.72 12.72L25.72 12.72Q25.10 12.32 24.77 11.64L24.77 11.64L24.77 11.64Q24.43 10.96 24.43 10.16L24.43 10.16L24.43 10.16Q24.43 9.25 24.87 8.62L24.87 8.62L24.87 8.62Q25.31 7.98 25.99 7.67L25.99 7.67L25.99 7.67Q26.67 7.35 27.38 7.35L27.38 7.35L27.38 7.35Q28.20 7.35 28.80 7.76L28.80 7.76L28.80 7.76Q29.41 8.16 29.74 8.83L29.74 8.83L29.74 8.83Q30.07 9.49 30.07 10.23L30.07 10.23L30.07 10.23Q30.07 11.10 29.67 11.76L29.67 11.76L29.67 11.76Q29.27 12.42 28.60 12.77L28.60 12.77L28.60 12.77Q27.93 13.12 27.13 13.12L27.13 13.12ZM27.52 12.87L27.52 12.87Q28.34 12.87 28.80 12.32L28.80 12.32L28.80 12.32Q29.26 11.77 29.26 10.60L29.26 10.60L29.26 10.60Q29.26 9.76 28.97 9.08L28.97 9.08L28.97 9.08Q28.67 8.40 28.14 8.01L28.14 8.01L28.14 8.01Q27.61 7.62 26.92 7.62L26.92 7.62L26.92 7.62Q26.12 7.62 25.68 8.17L25.68 8.17L25.68 8.17Q25.23 8.72 25.23 9.76L25.23 9.76L25.23 9.76Q25.23 10.60 25.52 11.30L25.52 11.30L25.52 11.30Q25.82 12.01 26.33 12.44L26.33 12.44L26.33 12.44Q26.85 12.87 27.52 12.87L27.52 12.87Z"></path></g><defs data-v-fde0c5aa=""><!----></defs><g data-v-fde0c5aa="" id="ac5f2a80-0dc4-4784-b761-76ada107bb2d" stroke="none" fill="#7DE38D" transform="matrix(0.8694415819665977,0,0,0.8694415819665977,38.23677237061372,106.6070397406968)"><path d="M68.602 42.891h8.5v1.852h-8.5zM68.602 46.742h17v1.852h-17zM68.602 50.594h17v1.852h-17zM68.602 54.445h17v1.854h-17zM68.602 30.987h17v9.85h-17zM68.602 22.878h17v4.925h-17z"></path><path d="M68.602 42.891h8.5v1.852h-8.5zM68.602 30.987h17v9.85h-17zM68.602 46.742h17v1.852h-17zM68.602 22.878h17v4.925h-17zM68.602 54.445h17v1.854h-17zM68.602 50.594h17v1.852h-17zM47.681 72.504a1.845 1.845 0 1 1 1.846 1.846 1.846 1.846 0 0 1-1.846-1.846z"></path><path d="M49.527 70.658a1.845 1.845 0 1 1 1.847 1.846c0-1.02-.827-1.846-1.847-1.846z"></path><circle cx="49.527" cy="72.504" r="1.846"></circle><path d="M61.092 15.67H6.035v49.025h55.711V15.67h-.654zm-19.77 24.601v1.461h-23.71v-1.461h23.71zm-8.574-.947H17.612v-1.463h15.136v1.463zM12.417 20.572h4.169v1.462h-4.169v-1.462zm0 2.463h10.391v1.462H12.417v-1.462zm0 2.462h13.855v1.462H12.417v-1.462zm0 2.462h10.391v1.462H12.417v-1.462zm0 2.463h10.391v1.462H12.417v-1.462zm0 2.462h4.169v1.462h-4.169v-1.462zm0 2.464h6.97v1.461h-6.97v-1.461zm0 2.513h4.169v1.463h-4.169v-1.463zm0 2.41h4.169v1.461h-4.169v-1.461zm0 2.463h4.169v1.461h-4.169v-1.461zm0 4.925h4.169v1.462h-4.169v-1.462zm-1 11.312h-1.264v-1.463h1.264v1.463zm0-2.463h-1.264v-1.462h1.264v1.462zm0-2.462h-1.264v-1.462h1.264v1.462zm0-2.462h-1.264v-1.463h1.264v1.463zm0-2.463h-1.264v-1.462h1.264v1.462zm0-2.463h-1.264v-1.463h1.264v1.463zm0-2.463h-1.264v-1.461h1.264v1.461zm0-2.463h-1.264v-1.461h1.264v1.461zm0-2.461h-1.264v-1.463h1.264v1.463zm0-2.462h-1.264v-1.461h1.264v1.461zm0-2.463h-1.264v-1.462h1.264v1.462zm0-2.462h-1.264v-1.462h1.264v1.462zm0-2.463h-1.264v-1.462h1.264v1.462zm0-2.462h-1.264v-1.462h1.264v1.462zm0-2.462h-1.264v-1.462h1.264v1.462zm0-2.463h-1.264v-1.462h1.264v1.462zm7.97 36.937h-6.97v-1.463h6.97v1.463zm1.555-2.463h-8.525v-1.462h8.525v1.462zm8.526-2.462H12.417v-1.462h17.051v1.462zm3.28-2.462H12.417v-1.463h20.331v1.463zm12.883-2.463H17.612v-1.462h28.019v1.462zm0-2.463H12.417v-1.463h33.214v1.463zm5.159-2.463H17.612v-1.461H50.79v1.461zm5.169 0H51.79v-1.461h4.169v1.461z"></path><circle cx="49.527" cy="72.504" r="1.846"></circle><path d="M94.195 11.854H4.938c-1.563 0-2.91 1.189-2.91 2.752V74.213c0 1.563 1.347 2.877 2.91 2.877h35.146c-.041.896-.321 4.756-2.155 6.623-1.445 1.475-3.453 2.854-2.669 3.563.19.437 1.091.688 3.14.688h23.122c2.334 0 3.15-.383 3.158-.952h-.08v-.189h-.082c-.104-.77-1.662-1.906-2.84-3.105-1.834-1.867-2.113-5.725-2.154-6.621h34.674c1.564 0 2.83-1.314 2.83-2.879V14.607c-.001-1.565-1.269-2.753-2.833-2.753zM49.527 74.35a1.846 1.846 0 1 1 0-3.692 1.846 1.846 0 1 1 0 3.692zm43.494-9.655H6.035V15.67h86.986v49.025z"></path></g><!----></svg>